<?xml version="1.0" encoding="UTF-8"?>
<svg version="1.1" xmlns="http://www.w3.org/2000/svg" width="512" height="512">
<path d="M0 0 C1.01790619 0.00215515 2.03581238 0.0043103 3.08456421 0.00653076 C17.69363523 0.05620146 32.02575853 0.30709809 46.375 3.3125 C47.34985352 3.51117676 48.32470703 3.70985352 49.32910156 3.91455078 C97.7109774 14.03517194 141.69928269 35.9516877 177.375 70.3125 C178.3640332 71.26068604 178.3640332 71.26068604 179.37304688 72.22802734 C188.86130305 81.37247479 197.6012044 90.66984009 205.375 101.3125 C206.23306152 102.46355017 207.09113451 103.61459177 207.94921875 104.765625 C213.98736829 112.95680614 219.34595521 121.47054105 224.375 130.3125 C224.73948242 130.94430176 225.10396484 131.57610352 225.47949219 132.22705078 C247.08534998 169.97532572 256.85198095 212.74189997 256.6875 255.9375 C256.68534485 256.95540619 256.6831897 257.97331238 256.68096924 259.02206421 C256.63129854 273.63113523 256.38040191 287.96325853 253.375 302.3125 C253.07698486 303.77478027 253.07698486 303.77478027 252.77294922 305.26660156 C242.65232806 353.6484774 220.7358123 397.63678269 186.375 433.3125 C185.74287598 433.97185547 185.11075195 434.63121094 184.45947266 435.31054688 C175.31502521 444.79880305 166.01765991 453.5387044 155.375 461.3125 C154.22394983 462.17056152 153.07290823 463.02863451 151.921875 463.88671875 C143.73224019 469.92427396 135.22961724 475.30707302 126.375 480.3125 C125.66778809 480.7146875 124.96057617 481.116875 124.23193359 481.53125 C101.09654164 494.5566741 75.92537591 503.30551461 49.9375 508.625 C49.21860596 508.77235596 48.49971191 508.91971191 47.7590332 509.0715332 C33.08339502 511.86090125 18.55831162 512.66142619 3.64770508 512.62817383 C0.70811513 512.6250221 -2.2304558 512.64854926 -5.16992188 512.67382812 C-18.54306192 512.71848737 -31.43916711 511.51301542 -44.625 509.3125 C-46.33055054 509.03031616 -46.33055054 509.03031616 -48.07055664 508.74243164 C-91.33802759 500.97044532 -132.38793216 480.98345309 -165.625 452.3125 C-166.37007813 451.67828125 -167.11515625 451.0440625 -167.8828125 450.390625 C-181.38779833 438.57948485 -194.05918743 425.82889772 -204.625 411.3125 C-205.48149066 410.16255169 -206.33826433 409.01281411 -207.1953125 407.86328125 C-213.23534209 399.67315742 -218.61867614 391.16870382 -223.625 382.3125 C-224.0271875 381.60528809 -224.429375 380.89807617 -224.84375 380.16943359 C-237.8691741 357.03404164 -246.61801461 331.86287591 -251.9375 305.875 C-252.08485596 305.15610596 -252.23221191 304.43721191 -252.3840332 303.6965332 C-255.35789088 288.05024391 -255.99800362 272.57681954 -255.9375 256.6875 C-255.93534485 255.66959381 -255.9331897 254.65168762 -255.93096924 253.60293579 C-255.88129854 238.99386477 -255.63040191 224.66174147 -252.625 210.3125 C-252.42632324 209.33764648 -252.22764648 208.36279297 -252.02294922 207.35839844 C-241.90232806 158.9765226 -219.9858123 114.98821731 -185.625 79.3125 C-184.99287598 78.65314453 -184.36075195 77.99378906 -183.70947266 77.31445312 C-174.56502521 67.82619695 -165.26765991 59.0862956 -154.625 51.3125 C-153.47394983 50.45443848 -152.32290823 49.59636549 -151.171875 48.73828125 C-142.98224019 42.70072604 -134.47961724 37.31792698 -125.625 32.3125 C-124.91778809 31.9103125 -124.21057617 31.508125 -123.48193359 31.09375 C-100.34654164 18.0683259 -75.17537591 9.31948539 -49.1875 4 C-48.46860596 3.85264404 -47.74971191 3.70528809 -47.0090332 3.5534668 C-31.36274391 0.57960912 -15.88931954 -0.06050362 0 0 Z " fill="#F4F3F4" transform="translate(255.625,-0.3125)"/>
<path d="M0 0 C168.96 0 337.92 0 512 0 C510.81682441 20.11398505 510.81682441 20.11398505 509.375 28.5 C509.20387695 29.50135986 509.03275391 30.50271973 508.85644531 31.53442383 C500.88333223 75.67816138 481.09832516 116.94765891 452 151 C451.36320312 151.74894531 450.72640625 152.49789062 450.0703125 153.26953125 C438.25297532 166.76520621 425.51448412 179.43558025 411 190 C409.85005169 190.85649066 408.70031411 191.71326433 407.55078125 192.5703125 C399.36065742 198.61034209 390.85620382 203.99367614 382 209 C380.93918213 209.60328125 380.93918213 209.60328125 379.85693359 210.21875 C356.72154164 223.2441741 331.55037591 231.99301461 305.5625 237.3125 C304.84360596 237.45985596 304.12471191 237.60721191 303.3840332 237.7590332 C288.70839502 240.54840125 274.18331162 241.34892619 259.27270508 241.31567383 C256.33311513 241.3125221 253.3945442 241.33604926 250.45507812 241.36132812 C237.08193808 241.40598737 224.18583289 240.20051542 211 238 C209.86296631 237.81187744 208.72593262 237.62375488 207.55444336 237.42993164 C164.28697241 229.65794532 123.23706784 209.67095309 90 181 C89.25492187 180.36578125 88.50984375 179.7315625 87.7421875 179.078125 C74.23720167 167.26698485 61.56581257 154.51639772 51 140 C50.14350934 138.85005169 49.28673567 137.70031411 48.4296875 136.55078125 C42.38965791 128.36065742 37.00632386 119.85620382 32 111 C31.5978125 110.29278809 31.195625 109.58557617 30.78125 108.85693359 C12.52469836 76.43016004 0 37.47103201 0 0 Z " fill="#FE4B55" transform="translate(0,271)"/>
<path d="M0 0 C168.96 0 337.92 0 512 0 C510.81682441 20.11398505 510.81682441 20.11398505 509.375 28.5 C509.20387695 29.50135986 509.03275391 30.50271973 508.85644531 31.53442383 C504.94358704 53.19825661 497.74997446 73.85345387 489 94 C488.67 93.34 488.34 92.68 488 92 C334.88 92 181.76 92 24 92 C23.67 92.66 23.34 93.32 23 94 C10.4279516 64.17704705 0 32.70960889 0 0 Z " fill="#FE4D56" transform="translate(0,271)"/>
<path d="M0 0 C0 76.89 0 153.78 0 233 C-65.01 233 -130.02 233 -197 233 C-197 213.17012525 -197 213.17012525 -195.4375 205 C-195.26186523 204.04561035 -195.08623047 203.0912207 -194.90527344 202.10791016 C-186.38961897 158.0483433 -167.15419768 117.11772596 -138 83 C-137.04480469 81.87658203 -137.04480469 81.87658203 -136.0703125 80.73046875 C-124.25297532 67.23479379 -111.51448412 54.56441975 -97 44 C-95.85005169 43.14350934 -94.70031411 42.28673567 -93.55078125 41.4296875 C-85.36065742 35.38965791 -76.85620382 30.00632386 -68 25 C-67.29278809 24.5978125 -66.58557617 24.195625 -65.85693359 23.78125 C-49.67873625 14.67278613 -32.67517466 7.87799878 -14.9375 2.4375 C-13.7155896 2.05996582 -13.7155896 2.05996582 -12.46899414 1.67480469 C-11.70449951 1.45083008 -10.94000488 1.22685547 -10.15234375 0.99609375 C-9.49226318 0.80200928 -8.83218262 0.6079248 -8.15209961 0.40795898 C-6 0 -6 0 0 0 Z " fill="#42489C" transform="translate(198,7)"/>
<path d="M0 0 C128.04 0 256.08 0 388 0 C386.05101666 3.89796668 384.2959538 5.97459198 381.265625 9.03515625 C380.79581711 9.51051819 380.32600922 9.98588013 379.84196472 10.47564697 C378.31797977 12.01142513 376.78519392 13.53793088 375.25 15.0625 C374.72834259 15.58266693 374.20668518 16.10283386 373.66921997 16.63876343 C365.87448722 24.3933241 357.9575038 31.60649913 349 38 C347.85554596 38.84861102 346.71234599 39.69891553 345.5703125 40.55078125 C337.37771579 46.603145 328.86414286 51.98918828 320 57 C319.29278809 57.4021875 318.58557617 57.804375 317.85693359 58.21875 C294.72154164 71.2441741 269.55037591 79.99301461 243.5625 85.3125 C242.84360596 85.45985596 242.12471191 85.60721191 241.3840332 85.7590332 C226.70839502 88.54840125 212.18331162 89.34892619 197.27270508 89.31567383 C194.33311513 89.3125221 191.3945442 89.33604926 188.45507812 89.36132812 C175.08193808 89.40598737 162.18583289 88.20051542 149 86 C147.86296631 85.81187744 146.72593262 85.62375488 145.55444336 85.42993164 C102.28697241 77.65794532 61.23706784 57.67095309 28 29 C27.25492188 28.36578125 26.50984375 27.7315625 25.7421875 27.078125 C19.72276038 21.81367687 14.05485068 16.18816735 8.375 10.5625 C7.55572021 9.75627197 6.73644043 8.95004395 5.89233398 8.11938477 C5.13122314 7.35940186 4.3701123 6.59941895 3.5859375 5.81640625 C2.8954834 5.13006104 2.2050293 4.44371582 1.49365234 3.73657227 C0 2 0 2 0 0 Z " fill="#FE4D57" transform="translate(62,423)"/>
<path d="M0 0 C89.76 0 179.52 0 272 0 C274.30472069 6.14592183 276.0720913 11.73490458 277.5 18.0625 C277.71358154 19.00625488 277.92716309 19.95000977 278.1472168 20.92236328 C279.69640568 28.03398952 280.86673802 35.15946815 281.8125 42.375 C281.93625 43.31867432 282.06 44.26234863 282.1875 45.23461914 C282.84210088 50.60956625 283 55.50337268 283 61 C189.61 61 96.22 61 0 61 C0 40.87 0 20.74 0 0 Z " fill="#FE4D57" transform="translate(229,180)"/>
<path d="M0 0 C161.7 0 323.4 0 490 0 C486.625 12.375 486.625 12.375 484.73828125 16.88671875 C484.34189453 17.84384766 483.94550781 18.80097656 483.53710938 19.78710938 C483.13298828 20.74423828 482.72886719 21.70136719 482.3125 22.6875 C481.68891602 24.18700195 481.68891602 24.18700195 481.05273438 25.71679688 C480.04108392 28.1470836 479.02347054 30.57467328 478 33 C477.67 32.34 477.34 31.68 477 31 C323.88 31 170.76 31 13 31 C12.67 31.66 12.34 32.32 12 33 C10.36629598 29.00350092 8.74462825 25.00222187 7.125 21 C6.66480469 19.87464844 6.20460938 18.74929688 5.73046875 17.58984375 C5.28574219 16.48769531 4.84101563 15.38554687 4.3828125 14.25 C3.97434082 13.24453125 3.56586914 12.2390625 3.14501953 11.203125 C1.83940225 7.55073721 0.94073104 3.76292415 0 0 Z " fill="#F5F3F3" transform="translate(11,332)"/>
<path d="M0 0 C28.80705507 -0.20315516 57.61353025 -0.36894634 86.42111969 -0.46630955 C89.08380686 -0.47554801 91.74649355 -0.48486004 94.40917969 -0.49438477 C95.07099768 -0.49674556 95.73281568 -0.49910635 96.41468877 -0.50153869 C106.45928778 -0.53824737 116.50348881 -0.60163389 126.54785156 -0.67895508 C138.20589626 -0.76865556 149.86359579 -0.82672301 161.52197599 -0.84679645 C167.69530688 -0.85853073 173.86765028 -0.88610926 180.04066467 -0.95157051 C185.85214994 -1.01269818 191.66224187 -1.03149655 197.4740181 -1.01796913 C199.6057607 -1.02044346 201.73755028 -1.03832526 203.86901474 -1.07284927 C219.96224894 -1.3207121 219.96224894 -1.3207121 224.97662354 1.92921638 C227.03548962 4.19727647 228.5094003 6.33492207 230 9 C231.01509382 10.36791972 232.04283228 11.72666567 233.08984375 13.0703125 C234.04652898 14.41660028 234.99564771 15.76829381 235.9375 17.125 C236.44837158 17.85654297 236.95924316 18.58808594 237.4855957 19.34179688 C244.35989768 29.29152934 250.36103354 39.65445968 256.0625 50.3125 C256.45719482 51.04855469 256.85188965 51.78460938 257.25854492 52.54296875 C260 57.75425301 260 57.75425301 260 60 C174.2 60 88.4 60 0 60 C0 40.2 0 20.4 0 0 Z " fill="#FE4B55" transform="translate(229,89)"/>
<path d="M0 0 C128.04 0 256.08 0 388 0 C386.0060646 3.9878708 384.13885476 6.11902517 381.01953125 9.24609375 C380.52845383 9.73908463 380.0373764 10.2320755 379.53141785 10.74000549 C378.49239721 11.78038402 377.45085897 12.81825355 376.40698242 13.85375977 C374.82824106 15.42186499 373.26036241 17.00025304 371.69335938 18.58007812 C370.6777233 19.5943912 369.66146625 20.60808295 368.64453125 21.62109375 C367.27325073 22.98899048 367.27325073 22.98899048 365.87426758 24.38452148 C364.92575928 25.24762939 363.97725098 26.1107373 363 27 C361.58321205 28.29689994 361.58321205 28.29689994 360.13780212 29.61999989 C354.89568006 33.28198573 349.09487123 32.72057044 342.92089844 32.69548035 C341.58496672 32.70769629 340.24905316 32.72205355 338.91316509 32.73835927 C335.25231767 32.77662472 331.59197737 32.78377682 327.93095469 32.78555477 C323.97834631 32.79277385 320.02597572 32.82849665 316.07350159 32.8601532 C307.43477685 32.92366878 298.79618353 32.9497365 290.15726089 32.96801162 C284.75841124 32.97957072 279.35960617 32.99880959 273.96078491 33.01952553 C258.99989565 33.07566219 244.03904447 33.12296445 229.07804871 33.13602734 C227.64261714 33.13729674 227.64261714 33.13729674 226.17818695 33.13859178 C224.23836486 33.14028233 222.29854276 33.1419721 220.35872066 33.1436611 C218.91440833 33.14493777 218.91440833 33.14493777 217.44091797 33.14624023 C216.47686134 33.14708507 215.5128047 33.14792991 214.51953423 33.14880035 C198.90974191 33.16417538 183.30099089 33.24351975 167.69158578 33.35081669 C151.64845906 33.46020314 135.60585192 33.51679574 119.5623455 33.5205906 C110.56123038 33.52391858 101.5614292 33.5494435 92.56066895 33.6330471 C84.89353207 33.70398779 77.22814045 33.72627722 69.56074613 33.68658527 C65.65282334 33.66777118 61.74838405 33.67094899 57.84088326 33.73616791 C32.01654656 34.14258337 32.01654656 34.14258337 23.75764751 27.10929137 C21.41075214 24.75954209 19.3035276 22.32190649 17.30160141 19.67354357 C15.4369108 17.27600393 13.26116917 15.26112522 11.03515625 13.203125 C9.70848813 11.88788273 8.38413555 10.57029922 7.0625 9.25 C6.36705078 8.56679688 5.67160156 7.88359375 4.95507812 7.1796875 C4.30087891 6.52742188 3.64667969 5.87515625 2.97265625 5.203125 C2.11039429 4.34702637 2.11039429 4.34702637 1.23071289 3.47363281 C0 2 0 2 0 0 Z " fill="#F5F4F4" transform="translate(62,423)"/>
<path d="M0 0 C0.84723633 -0.00945648 1.69447266 -0.01891296 2.56738281 -0.02865601 C3.4799585 -0.03305695 4.39253418 -0.03745789 5.33276367 -0.04199219 C6.76289795 -0.05258163 6.76289795 -0.05258163 8.22192383 -0.06338501 C48.20200332 -0.2918542 48.20200332 -0.2918542 64.68823242 3.16113281 C65.66308594 3.35980957 66.63793945 3.55848633 67.64233398 3.76318359 C107.60089753 12.12179881 149.00034146 28.39589813 179.68823242 56.16113281 C180.01823242 56.82113281 180.34823242 57.48113281 180.68823242 58.16113281 C118.31823242 58.16113281 55.94823242 58.16113281 -8.31176758 58.16113281 C-8.31176758 39.35113281 -8.31176758 20.54113281 -8.31176758 1.16113281 C-5.20521262 0.38449407 -3.10162471 0.02866023 0 0 Z " fill="#FE4D57" transform="translate(237.311767578125,-0.1611328125)"/>
<path d="M0 0 C0.66 0.33 1.32 0.66 2 1 C2.92166393 4.96543059 3.40594668 8.96892391 4 13 C8.29 13 12.58 13 17 13 C12 18 12 18 9 20 C8.34 20 7.68 20 7 20 C7.34224609 20.79664063 7.34224609 20.79664063 7.69140625 21.609375 C7.97886719 22.31578125 8.26632813 23.0221875 8.5625 23.75 C8.85253906 24.44609375 9.14257812 25.1421875 9.44140625 25.859375 C10.07831803 28.30012784 9.80248831 29.6403655 9 32 C8.54109375 31.62746094 8.0821875 31.25492188 7.609375 30.87109375 C6.99578125 30.39800781 6.3821875 29.92492187 5.75 29.4375 C5.14671875 28.96183594 4.5434375 28.48617187 3.921875 27.99609375 C2.06092951 26.80647264 2.06092951 26.80647264 0 27.21875 C-2.04660625 28.01820557 -3.86332211 28.93774972 -5.75 30.0625 C-6.8225 30.701875 -7.895 31.34125 -9 32 C-8.14285714 23.42857143 -8.14285714 23.42857143 -6 20 C-6.721875 19.773125 -7.44375 19.54625 -8.1875 19.3125 C-11 18 -11 18 -16 13 C-10.72 8.71 -5.44 4.42 0 0 Z " fill="#F5F5F9" transform="translate(102,50)"/>
<path d="M0 0 C3.12259437 3.12259437 3.14293342 6.71466712 4 11 C8.29 11 12.58 11 17 11 C14 14 11 17 8 20 C8.33 20.9075 8.66 21.815 9 22.75 C10 26 10 26 10 30 C6.40608886 28.66511872 3.24509304 27.03977277 0 25 C-0.55429688 25.433125 -1.10859375 25.86625 -1.6796875 26.3125 C-2.40414062 26.869375 -3.12859375 27.42625 -3.875 28 C-4.59429687 28.556875 -5.31359375 29.11375 -6.0546875 29.6875 C-8 31 -8 31 -10 31 C-9.01 27.04 -8.02 23.08 -7 19 C-8.485 18.05125 -9.97 17.1025 -11.5 16.125 C-14.03125 14.5078125 -14.03125 14.5078125 -16 13 C-16 12.34 -16 11.68 -16 11 C-11.71 11 -7.42 11 -3 11 C-2.87625 9.9275 -2.7525 8.855 -2.625 7.75 C-2.10356064 4.62136385 -1.59911746 2.66519576 0 0 Z " fill="#F1F1F7" transform="translate(113,92)"/>
<path d="M0 0 C3.12259437 3.12259437 3.14293342 6.71466712 4 11 C7.96 11 11.92 11 16 11 C14.53513159 15.39460523 11.80158045 16.44257315 8 19 C8.66 22.63 9.32 26.26 10 30 C6.18566987 28.47426795 4.03447696 27.47253678 1 25 C-1.55542423 26.1357441 -3.43077828 27.34872527 -5.625 29.125 C-8 31 -8 31 -10 31 C-9.67 29.783125 -9.34 28.56625 -9 27.3125 C-8.66117454 25.8762846 -8.32749735 24.4388408 -8 23 C-7.79375 22.113125 -7.5875 21.22625 -7.375 20.3125 C-8.19646815 17.27306785 -9.35451458 16.92035687 -12 15.3125 C-12.7425 14.91675781 -13.485 14.52101563 -14.25 14.11328125 C-14.8275 13.74589844 -15.405 13.37851562 -16 13 C-16 12.34 -16 11.68 -16 11 C-11.71 11 -7.42 11 -3 11 C-2.87625 9.9275 -2.7525 8.855 -2.625 7.75 C-2.10356064 4.62136385 -1.59911746 2.66519576 0 0 Z " fill="#F1F2F8" transform="translate(179,43)"/>
<path d="M0 0 C3.12259437 3.12259437 3.14293342 6.71466712 4 11 C7.96 11 11.92 11 16 11 C16 11.66 16 12.32 16 13 C14.5390625 14.2890625 14.5390625 14.2890625 12.625 15.625 C11.99851563 16.07101563 11.37203125 16.51703125 10.7265625 16.9765625 C9 18 9 18 7 18 C7.2165625 18.61488281 7.433125 19.22976562 7.65625 19.86328125 C7.9346875 20.67152344 8.213125 21.47976562 8.5 22.3125 C8.7784375 23.11300781 9.056875 23.91351563 9.34375 24.73828125 C10 27 10 27 10 30 C6.54074837 28.7508258 3.85306797 27.32472205 1 25 C-2.77727089 26.81309003 -6.37269822 28.9073259 -10 31 C-9.7834375 30.09507812 -9.7834375 30.09507812 -9.5625 29.171875 C-9.376875 28.37265625 -9.19125 27.5734375 -9 26.75 C-8.814375 25.96109375 -8.62875 25.1721875 -8.4375 24.359375 C-7.87845172 21.74443998 -7.87845172 21.74443998 -8 18 C-9.75103957 16.49599603 -9.75103957 16.49599603 -12 15.375 C-14.25 14.1484375 -14.25 14.1484375 -16 13 C-16 12.34 -16 11.68 -16 11 C-10.06 10.505 -10.06 10.505 -4 10 C-2.68 6.7 -1.36 3.4 0 0 Z " fill="#F2F3F8" transform="translate(142,186)"/>
<path d="M0 0 C0.66 0 1.32 0 2 0 C2.50615298 1.26839526 3.00469099 2.53983102 3.5 3.8125 C3.7784375 4.52019531 4.056875 5.22789062 4.34375 5.95703125 C5 8 5 8 5 11 C8.96 11 12.92 11 17 11 C17 11.66 17 12.32 17 13 C15.5390625 14.2890625 15.5390625 14.2890625 13.625 15.625 C12.99851563 16.07101563 12.37203125 16.51703125 11.7265625 16.9765625 C10 18 10 18 8 18 C8.2165625 18.61488281 8.433125 19.22976562 8.65625 19.86328125 C8.9346875 20.67152344 9.213125 21.47976562 9.5 22.3125 C9.7784375 23.11300781 10.056875 23.91351563 10.34375 24.73828125 C11 27 11 27 11 30 C8.68083914 28.88336699 6.66307888 27.75810791 4.5625 26.25 C2.08829747 24.71035897 2.08829747 24.71035897 -0.4375 25.5625 C-3.4051563 27.2272828 -6.20986042 29.05339099 -9 31 C-8.7834375 30.09507812 -8.7834375 30.09507812 -8.5625 29.171875 C-8.376875 28.37265625 -8.19125 27.5734375 -8 26.75 C-7.814375 25.96109375 -7.62875 25.1721875 -7.4375 24.359375 C-6.87845172 21.74443998 -6.87845172 21.74443998 -7 18 C-8.74364411 16.24533584 -8.74364411 16.24533584 -11 14.8125 C-12.34422229 13.89068089 -13.68066857 12.95710428 -15 12 C-15 11.67 -15 11.34 -15 11 C-11.04 11 -7.08 11 -3 11 C-2.01 7.37 -1.02 3.74 0 0 Z " fill="#F4F4F9" transform="translate(139,129)"/>
<path d="M0 0 C2 1 2 1 3.125 3.8125 C4 7 4 7 4 11 C8.29 11 12.58 11 17 11 C14 14 11 17 8 20 C8.33 20.9075 8.66 21.815 9 22.75 C10 26 10 26 10 30 C7.69759223 28.93102496 5.95987369 27.96375688 4.0625 26.25 C3.381875 25.8375 2.70125 25.425 2 25 C-1.62327902 25.90581975 -4.06563815 27.77393239 -7 30 C-7.66 30 -8.32 30 -9 30 C-8.49800802 26.27091669 -7.95792977 22.63852314 -7 19 C-7.6496875 18.50628906 -8.299375 18.01257813 -8.96875 17.50390625 C-9.8040625 16.86324219 -10.639375 16.22257812 -11.5 15.5625 C-12.3353125 14.92441406 -13.170625 14.28632813 -14.03125 13.62890625 C-15.00578125 12.82259766 -15.00578125 12.82259766 -16 12 C-16 11.67 -16 11.34 -16 11 C-11.71 11 -7.42 11 -3 11 C-2.690625 9.55625 -2.38125 8.1125 -2.0625 6.625 C-1.54516353 4.21076314 -1.10514766 2.21029533 0 0 Z " fill="#F3F3F8" transform="translate(40,205)"/>
<path d="M0 0 C2 1 2 1 2.8515625 3.06640625 C3.56770833 5.37760417 4.28385417 7.68880208 5 10 C8.96 10.33 12.92 10.66 17 11 C14.42215154 13.64752004 12.08351902 15.94432065 9 18 C9.60825035 22.34464536 10.26167392 26.67551867 11 31 C10.40832031 30.54367188 9.81664062 30.08734375 9.20703125 29.6171875 C8.41683594 29.04226562 7.62664062 28.46734375 6.8125 27.875 C6.03519531 27.29492188 5.25789063 26.71484375 4.45703125 26.1171875 C2.01567764 24.69247041 2.01567764 24.69247041 -0.6640625 25.71875 C-2.9544541 26.9750183 -4.92291205 28.4242781 -7 30 C-7.66 30 -8.32 30 -9 30 C-8.68950274 28.56206608 -8.3765224 27.1246682 -8.0625 25.6875 C-7.88847656 24.88699219 -7.71445313 24.08648437 -7.53515625 23.26171875 C-7 21 -7 21 -6 18 C-6.7425 17.731875 -7.485 17.46375 -8.25 17.1875 C-10.89061949 16.04723249 -12.85552844 14.90619694 -15 13 C-15 12.34 -15 11.68 -15 11 C-11.04 11 -7.08 11 -3 11 C-2.690625 9.55625 -2.38125 8.1125 -2.0625 6.625 C-1.54516353 4.21076314 -1.10514766 2.21029533 0 0 Z " fill="#F4F4F9" transform="translate(174,203)"/>
<path d="M0 0 C0.66 0 1.32 0 2 0 C2.99 3.63 3.98 7.26 5 11 C8.96 11 12.92 11 17 11 C14.42215154 13.64752004 12.08351902 15.94432065 9 18 C9.60825035 22.34464536 10.26167392 26.67551867 11 31 C10.40832031 30.54367188 9.81664062 30.08734375 9.20703125 29.6171875 C8.41683594 29.04226562 7.62664062 28.46734375 6.8125 27.875 C6.03519531 27.29492188 5.25789063 26.71484375 4.45703125 26.1171875 C2.01567764 24.69247041 2.01567764 24.69247041 -0.6640625 25.71875 C-2.9544541 26.9750183 -4.92291205 28.4242781 -7 30 C-7.66 30 -8.32 30 -9 30 C-8.34 26.04 -7.68 22.08 -7 18 C-8.32 17.030625 -9.64 16.06125 -11 15.0625 C-12.35348244 14.06853634 -13.69243643 13.0536394 -15 12 C-15 11.67 -15 11.34 -15 11 C-11.04 11 -7.08 11 -3 11 C-2.690625 9.55625 -2.38125 8.1125 -2.0625 6.625 C-1.54516353 4.21076314 -1.10514766 2.21029533 0 0 Z " fill="#F5F5F9" transform="translate(172,161)"/>
<path d="M0 0 C0.66 0 1.32 0 2 0 C2.99 3.63 3.98 7.26 5 11 C8.96 11 12.92 11 17 11 C17 11.66 17 12.32 17 13 C14.46301176 15.18588719 11.72203468 17.04353757 9 19 C9.66 22.96 10.32 26.92 11 31 C6.545 28.03 6.545 28.03 2 25 C-0.64609342 26.32304671 -3.19540901 27.65119751 -5.75 29.125 C-6.8225 29.74375 -7.895 30.3625 -9 31 C-8.34 27.04 -7.68 23.08 -7 19 C-8.32 18.030625 -9.64 17.06125 -11 16.0625 C-12.35348244 15.06853634 -13.69243643 14.0536394 -15 13 C-15 12.67 -15 12.34 -15 12 C-11.04 12 -7.08 12 -3 12 C-2.690625 10.576875 -2.38125 9.15375 -2.0625 7.6875 C-1.48800637 5.04482928 -0.85697694 2.57093082 0 0 Z " fill="#F3F3F8" transform="translate(106,154)"/>
<path d="M0 0 C2.18975773 3.28463659 2.99806563 6.20696275 4 10 C7.96 10 11.92 10 16 10 C13.42215154 12.64752004 11.08351902 14.94432065 8 17 C8.144375 17.845625 8.28875 18.69125 8.4375 19.5625 C9.0058797 23.03593149 9.51202393 26.51445662 10 30 C9.40832031 29.54367188 8.81664062 29.08734375 8.20703125 28.6171875 C7.41683594 28.04226562 6.62664062 27.46734375 5.8125 26.875 C5.03519531 26.29492188 4.25789063 25.71484375 3.45703125 25.1171875 C1.01567764 23.69247041 1.01567764 23.69247041 -1.6640625 24.71875 C-3.9544541 25.9750183 -5.92291205 27.4242781 -8 29 C-8.66 29 -9.32 29 -10 29 C-9.34 25.04 -8.68 21.08 -8 17 C-9.155 16.21625 -10.31 15.4325 -11.5 14.625 C-13.46875 13.2890625 -13.46875 13.2890625 -15 12 C-15 11.34 -15 10.68 -15 10 C-11.37 10 -7.74 10 -4 10 C-3.34 7.69 -2.68 5.38 -2 3 C-2.66 2.67 -3.32 2.34 -4 2 C-2.68 1.34 -1.36 0.68 0 0 Z " fill="#F4F5F9" transform="translate(137,28)"/>
<path d="M0 0 C2 1 2 1 2.8515625 3.06640625 C3.56770833 5.37760417 4.28385417 7.68880208 5 10 C8.96 10.33 12.92 10.66 17 11 C14.42215154 13.64752004 12.08351902 15.94432065 9 18 C9.60825035 22.34464536 10.26167392 26.67551867 11 31 C10.39671875 30.55527344 9.7934375 30.11054687 9.171875 29.65234375 C8.37265625 29.08644531 7.5734375 28.52054688 6.75 27.9375 C5.96109375 27.36902344 5.1721875 26.80054687 4.359375 26.21484375 C2.12334188 24.7979121 2.12334188 24.7979121 -0.1328125 25.1875 C-2.78357673 26.34097063 -4.77028974 28.18102584 -7 30 C-7.66 30 -8.32 30 -9 30 C-8.49202991 25.6822542 -7.80317221 21.96697886 -6 18 C-6.556875 17.773125 -7.11375 17.54625 -7.6875 17.3125 C-10.63246684 15.64103234 -12.68156544 13.44723648 -15 11 C-11.04 11 -7.08 11 -3 11 C-2.690625 9.55625 -2.38125 8.1125 -2.0625 6.625 C-1.54516353 4.21076314 -1.10514766 2.21029533 0 0 Z " fill="#F6F6FA" transform="translate(147,72)"/>
<path d="M0 0 C2 1 2 1 3.125 3.8125 C4 7 4 7 4 11 C8.29 11 12.58 11 17 11 C13.87378374 14.39417765 11.43458973 16.6062718 7 18 C7.34224609 18.79664063 7.34224609 18.79664063 7.69140625 19.609375 C7.97886719 20.31578125 8.26632813 21.0221875 8.5625 21.75 C8.85253906 22.44609375 9.14257812 23.1421875 9.44140625 23.859375 C10.07831803 26.30012784 9.80248831 27.6403655 9 30 C8.54109375 29.62746094 8.0821875 29.25492188 7.609375 28.87109375 C6.99578125 28.39800781 6.3821875 27.92492187 5.75 27.4375 C5.14671875 26.96183594 4.5434375 26.48617187 3.921875 25.99609375 C2.06092951 24.80647264 2.06092951 24.80647264 0 25.21875 C-2.04660625 26.01820557 -3.86332211 26.93774972 -5.75 28.0625 C-6.8225 28.701875 -7.895 29.34125 -9 30 C-8.835 29.20335937 -8.67 28.40671875 -8.5 27.5859375 C-7.97966361 24.24440224 -7.66077483 21.37078173 -8 18 C-10.27697659 15.2147234 -12.88485104 13.72457919 -16 12 C-16 11.67 -16 11.34 -16 11 C-11.71 11 -7.42 11 -3 11 C-2.87625 9.9275 -2.7525 8.855 -2.625 7.75 C-2.10356064 4.62136385 -1.59911746 2.66519576 0 0 Z " fill="#F6F7FA" transform="translate(105,204)"/>
<path d="M0 0 C3.44216672 2.6598561 3.99504674 5.90288286 5 10 C8.96 10.33 12.92 10.66 17 11 C14.42215154 13.64752004 12.08351902 15.94432065 9 18 C9.55312735 22.02992782 10.1558062 26.02022924 11 30 C8.28626162 29.02003892 6.18373822 28.15033127 3.9375 26.3125 C2.13955351 24.81703496 2.13955351 24.81703496 0.1875 25.0625 C-3.04281331 26.44691999 -5.98101912 28.20022294 -9 30 C-8.44687265 25.97007218 -7.8441938 21.97977076 -7 18 C-7.86625 17.36771484 -7.86625 17.36771484 -8.75 16.72265625 C-9.4925 16.17480469 -10.235 15.62695312 -11 15.0625 C-12.11375 14.24458984 -12.11375 14.24458984 -13.25 13.41015625 C-13.8275 12.94480469 -14.405 12.47945312 -15 12 C-15 11.67 -15 11.34 -15 11 C-11.04 11 -7.08 11 -3 11 C-2.690625 9.55625 -2.38125 8.1125 -2.0625 6.625 C-1.54516353 4.21076314 -1.10514766 2.21029533 0 0 Z " fill="#F7F7FA" transform="translate(73,180)"/>
<path d="M0 0 C0.66 0 1.32 0 2 0 C2.50615298 1.26839526 3.00469099 2.53983102 3.5 3.8125 C3.7784375 4.52019531 4.056875 5.22789063 4.34375 5.95703125 C5 8 5 8 5 11 C8.96 11 12.92 11 17 11 C14.42215154 13.64752004 12.08351902 15.94432065 9 18 C9.66 21.96 10.32 25.92 11 30 C9.948125 29.360625 8.89625 28.72125 7.8125 28.0625 C3.6617999 25.65809828 3.6617999 25.65809828 -1 25 C-3.20180294 26.48977712 -5.02514767 28.2006901 -7 30 C-7.66 30 -8.32 30 -9 30 C-8.34 26.04 -7.68 22.08 -7 18 C-8.32 17.030625 -9.64 16.06125 -11 15.0625 C-12.35348244 14.06853634 -13.69243643 13.0536394 -15 12 C-15 11.67 -15 11.34 -15 11 C-11.04 11 -7.08 11 -3 11 C-2.01 7.37 -1.02 3.74 0 0 Z " fill="#F6F6FA" transform="translate(81,122)"/>
<path d="M0 0 C2 1 2 1 2.8515625 3.06640625 C3.56770833 5.37760417 4.28385417 7.68880208 5 10 C8.96 10.33 12.92 10.66 17 11 C12 16 12 16 9 18 C8.34 18 7.68 18 7 18 C7.28875 18.69867188 7.5775 19.39734375 7.875 20.1171875 C8.24625 21.02726562 8.6175 21.93734375 9 22.875 C9.37125 23.77992188 9.7425 24.68484375 10.125 25.6171875 C11 28 11 28 11 30 C8.28626162 29.02003892 6.18373822 28.15033127 3.9375 26.3125 C2.13955351 24.81703496 2.13955351 24.81703496 0.1875 25.0625 C-3.04281331 26.44691999 -5.98101912 28.20022294 -9 30 C-8.44687265 25.97007218 -7.8441938 21.97977076 -7 18 C-7.86625 17.36771484 -7.86625 17.36771484 -8.75 16.72265625 C-9.4925 16.17480469 -10.235 15.62695312 -11 15.0625 C-12.11375 14.24458984 -12.11375 14.24458984 -13.25 13.41015625 C-13.8275 12.94480469 -14.405 12.47945312 -15 12 C-15 11.67 -15 11.34 -15 11 C-11.04 11 -7.08 11 -3 11 C-2.690625 9.370625 -2.38125 7.74125 -2.0625 6.0625 C-1.125 1.125 -1.125 1.125 0 0 Z " fill="#F7F7FA" transform="translate(50,150)"/>
<path d="M0 0 C3.45854519 3.45854519 4 7.21904213 4 12 C7.96 12 11.92 12 16 12 C13.42215154 14.64752004 11.08351902 16.94432065 8 19 C9.485 24.94 9.485 24.94 11 31 C6.7870524 29.31482096 3.67684111 27.56523798 0 25 C-0.55429688 25.433125 -1.10859375 25.86625 -1.6796875 26.3125 C-2.40414062 26.869375 -3.12859375 27.42625 -3.875 28 C-4.59429687 28.556875 -5.31359375 29.11375 -6.0546875 29.6875 C-8 31 -8 31 -10 31 C-9.01 27.04 -8.02 23.08 -7 19 C-8.32 18.030625 -9.64 17.06125 -11 16.0625 C-12.35348244 15.06853634 -13.69243643 14.0536394 -15 13 C-15 12.67 -15 12.34 -15 12 C-9.555 11.505 -9.555 11.505 -4 11 C-3.2884375 8.5559375 -3.2884375 8.5559375 -2.5625 6.0625 C-1.125 1.125 -1.125 1.125 0 0 Z " fill="#F6F7FA" transform="translate(173,103)"/>
<path d="M0 0 C2 3 2 3 3 8 C6.96 8 10.92 8 15 8 C12.42215154 10.64752004 10.08351902 12.94432065 7 15 C7.66 18.96 8.32 22.92 9 27 C5 25 5 25 3.0625 23.3125 C1.08202148 21.78199553 1.08202148 21.78199553 -1.3125 22.0625 C-4.85540622 23.29839752 -7.79297334 25.05063085 -11 27 C-10.44687265 22.97007218 -9.8441938 18.97977076 -9 15 C-9.99 15 -10.98 15 -12 15 C-10.38462556 11.10082032 -7.72075127 8.28706228 -4.875 5.25 C-4.40707031 4.74339844 -3.93914062 4.23679687 -3.45703125 3.71484375 C-2.30873459 2.47280859 -1.15491328 1.23588506 0 0 Z " fill="#F7F7FB" transform="translate(69,80)"/>
<path d="M0 0 C-4.5 4.5 -4.5 4.5 -9 9 C-8.67 9.9075 -8.34 10.815 -8 11.75 C-7 15 -7 15 -7 19 C-9.30240777 17.93102496 -11.04012631 16.96375688 -12.9375 15.25 C-13.9584375 14.63125 -13.9584375 14.63125 -15 14 C-18.62327902 14.90581975 -21.06563815 16.77393239 -24 19 C-24.66 19 -25.32 19 -26 19 C-25.09498681 12.27704485 -25.09498681 12.27704485 -24.25 9.8125 C-23.76591316 7.8231568 -23.76591316 7.8231568 -25.484375 5.88671875 C-25.98453125 5.26410156 -26.4846875 4.64148438 -27 4 C-17.44884298 -0.13835739 -10.4881596 -1.7596414 0 0 Z " fill="#F2F3F8" transform="translate(188,13)"/>
<path d="M0 0 C0.33 0 0.66 0 1 0 C1.99 3.63 2.98 7.26 4 11 C7.63 11.33 11.26 11.66 15 12 C12.33333333 14.66666667 9.66666667 17.33333333 7 20 C7.99 23.63 8.98 27.26 10 31 C6.23801156 29.11900578 2.64081132 27.10046807 -1 25 C-2.32 25.99 -3.64 26.98 -5 28 C-5.66 27.67 -6.32 27.34 -7 27 C-6.02275319 23.06202094 -5.04287439 19.1247015 -4.0625 15.1875 C-3.78470703 14.06794922 -3.50691406 12.94839844 -3.22070312 11.79492188 C-2.95322266 10.72177734 -2.68574219 9.64863281 -2.41015625 8.54296875 C-2.04096069 7.0583313 -2.04096069 7.0583313 -1.66430664 5.54370117 C-1.17678582 3.67693182 -0.6101233 1.83036989 0 0 Z " fill="#F3F3F8" transform="translate(11,178)"/>
<path d="M0 0 C1.65 0.33 3.3 0.66 5 1 C3.49776416 5.20626034 0.71449966 6.73900021 -3 9 C-2.4740625 10.85625 -2.4740625 10.85625 -1.9375 12.75 C-1.04406727 15.903292 -0.99118706 17.86774164 -2 21 C-2.763125 20.38125 -3.52625 19.7625 -4.3125 19.125 C-6.99625809 16.94402948 -6.99625809 16.94402948 -10 15 C-5.05 7.575 -5.05 7.575 0 0 Z " fill="#E7E7F1" transform="translate(44,111)"/>
<path d="M0 0 C-0.30798326 1.48011371 -0.621518 2.95907325 -0.9375 4.4375 C-1.11152344 5.26121094 -1.28554687 6.08492187 -1.46484375 6.93359375 C-2 9 -2 9 -3 10 C-4.85287502 10.07226502 -6.70833878 10.0838122 -8.5625 10.0625 C-9.57441406 10.05347656 -10.58632812 10.04445313 -11.62890625 10.03515625 C-12.41136719 10.02355469 -13.19382812 10.01195312 -14 10 C-4.28571429 0 -4.28571429 0 0 0 Z " fill="#5157A4" transform="translate(101,53)"/>
<path d="M0 0 C-0.66 2.31 -1.32 4.62 -2 7 C-5.63 7 -9.26 7 -13 7 C-13.33 7.66 -13.66 8.32 -14 9 C-14 8.01 -14 7.02 -14 6 C-12.2335343 4.9923048 -10.46166177 3.99408286 -8.6875 3 C-7.20830078 2.1646875 -7.20830078 2.1646875 -5.69921875 1.3125 C-3 0 -3 0 0 0 Z " fill="#5B60A8" transform="translate(135,31)"/>
<path d="M0 0 C0.33 0.99 0.66 1.98 1 3 C-2.96 6.96 -6.92 10.92 -11 15 C-11 10.66825307 -8.34177417 8.77646347 -5.5 5.8125 C-4.97535156 5.25369141 -4.45070313 4.69488281 -3.91015625 4.11914062 C-2.61338387 2.73984636 -1.30753741 1.36909356 0 0 Z " fill="#D5D6E8" transform="translate(69,80)"/>
<path d="M0 0 C1.65 0.33 3.3 0.66 5 1 C3.86500606 4.29148243 3.00716624 4.9959869 -0.125 6.75 C-1.548125 7.36875 -1.548125 7.36875 -3 8 C-2.45276317 4.62537285 -1.9451 2.91765 0 0 Z " fill="#D9DAEB" transform="translate(44,111)"/>
</svg>
