<?xml version="1.0" standalone="no"?>
<!DOCTYPE svg PUBLIC "-//W3C//DTD SVG 20010904//EN"
 "http://www.w3.org/TR/2001/REC-SVG-20010904/DTD/svg10.dtd">
<svg version="1.0" xmlns="http://www.w3.org/2000/svg"
 width="64.000000pt" height="64.000000pt" viewBox="0 0 64.000000 64.000000"
 preserveAspectRatio="xMidYMid meet">

<g transform="translate(0.000000,64.000000) scale(0.100000,-0.100000)"
fill="#000000" stroke="none">
<path d="M12 628 c-17 -17 -17 -599 0 -616 17 -17 599 -17 616 0 17 17 17 599
0 616 -17 17 -599 17 -616 0z m603 -43 l0 -30 -295 0 c-276 0 -295 1 -298 18
-9 48 -12 47 300 45 l293 -3 0 -30z m3 -307 l-3 -253 -295 0 -295 0 -3 253 -2
252 300 0 300 0 -2 -252z"/>
<path d="M45 590 c-3 -5 1 -10 9 -10 9 0 16 5 16 10 0 6 -4 10 -9 10 -6 0 -13
-4 -16 -10z"/>
<path d="M100 590 c0 -5 7 -10 16 -10 8 0 12 5 9 10 -3 6 -10 10 -16 10 -5 0
-9 -4 -9 -10z"/>
<path d="M150 590 c0 -5 7 -10 15 -10 8 0 15 5 15 10 0 6 -7 10 -15 10 -8 0
-15 -4 -15 -10z"/>
<path d="M515 590 c-4 -6 12 -10 40 -10 28 0 44 4 40 10 -3 6 -21 10 -40 10
-19 0 -37 -4 -40 -10z"/>
<path d="M102 438 c-7 -7 -12 -38 -12 -70 0 -45 -4 -62 -19 -75 -19 -16 -19
-16 0 -32 14 -12 19 -32 21 -81 3 -61 5 -65 28 -68 23 -2 24 -1 8 11 -14 11
-18 29 -18 75 0 33 -5 64 -10 67 -7 4 -7 12 0 25 5 10 10 44 10 75 0 40 4 57
15 61 8 4 12 10 9 15 -7 12 -18 11 -32 -3z"/>
<path d="M507 443 c-4 -3 0 -11 9 -18 13 -9 16 -35 16 -149 0 -121 -3 -139
-19 -152 -17 -14 -16 -14 7 -12 23 3 25 7 28 68 2 49 7 69 21 81 19 16 19 16
0 32 -15 13 -19 30 -19 75 0 64 -20 99 -43 75z"/>
<path d="M150 351 c-5 -11 -10 -46 -10 -79 0 -46 4 -63 20 -77 26 -24 68 -13
81 23 13 33 7 116 -11 137 -18 22 -67 19 -80 -4z m68 -72 c2 -55 0 -68 -14
-73 -29 -11 -44 13 -44 74 0 63 5 72 35 68 17 -3 20 -11 23 -69z"/>
<path d="M282 358 c-7 -7 -12 -41 -12 -85 0 -61 3 -74 19 -83 55 -29 81 0 81
89 0 73 -10 91 -50 91 -14 0 -31 -5 -38 -12z m66 -79 c2 -53 0 -68 -13 -72
-34 -14 -45 3 -45 67 0 69 4 78 35 74 17 -3 20 -11 23 -69z"/>
<path d="M394 357 c-9 -24 1 -172 11 -172 6 0 11 17 13 38 3 33 6 37 31 37 33
0 51 16 51 48 0 44 -17 62 -61 62 -24 0 -42 -5 -45 -13z m81 -42 c0 -25 -4
-30 -27 -33 -26 -3 -28 -1 -28 33 0 34 2 36 28 33 23 -3 27 -8 27 -33z"/>
</g>
</svg>
