<?xml version="1.0" encoding="UTF-8"?>
<svg version="1.1" xmlns="http://www.w3.org/2000/svg" width="512" height="512">
<path d="M0 0 C1.01790619 0.00215515 2.03581238 0.0043103 3.08456421 0.00653076 C17.69363523 0.05620146 32.02575853 0.30709809 46.375 3.3125 C47.34985352 3.51117676 48.32470703 3.70985352 49.32910156 3.91455078 C97.7109774 14.03517194 141.69928269 35.9516877 177.375 70.3125 C178.3640332 71.26068604 178.3640332 71.26068604 179.37304688 72.22802734 C188.86130305 81.37247479 197.6012044 90.66984009 205.375 101.3125 C206.23306152 102.46355017 207.09113451 103.61459177 207.94921875 104.765625 C213.98736829 112.95680614 219.34595521 121.47054105 224.375 130.3125 C224.73948242 130.94430176 225.10396484 131.57610352 225.47949219 132.22705078 C247.08534998 169.97532572 256.85198095 212.74189997 256.6875 255.9375 C256.68534485 256.95540619 256.6831897 257.97331238 256.68096924 259.02206421 C256.63129854 273.63113523 256.38040191 287.96325853 253.375 302.3125 C253.07698486 303.77478027 253.07698486 303.77478027 252.77294922 305.26660156 C242.65232806 353.6484774 220.7358123 397.63678269 186.375 433.3125 C185.74287598 433.97185547 185.11075195 434.63121094 184.45947266 435.31054688 C175.31502521 444.79880305 166.01765991 453.5387044 155.375 461.3125 C154.22394983 462.17056152 153.07290823 463.02863451 151.921875 463.88671875 C143.73224019 469.92427396 135.22961724 475.30707302 126.375 480.3125 C125.66778809 480.7146875 124.96057617 481.116875 124.23193359 481.53125 C101.09654164 494.5566741 75.92537591 503.30551461 49.9375 508.625 C49.21860596 508.77235596 48.49971191 508.91971191 47.7590332 509.0715332 C33.08339502 511.86090125 18.55831162 512.66142619 3.64770508 512.62817383 C0.70811513 512.6250221 -2.2304558 512.64854926 -5.16992188 512.67382812 C-18.54306192 512.71848737 -31.43916711 511.51301542 -44.625 509.3125 C-46.33055054 509.03031616 -46.33055054 509.03031616 -48.07055664 508.74243164 C-91.33802759 500.97044532 -132.38793216 480.98345309 -165.625 452.3125 C-166.37007813 451.67828125 -167.11515625 451.0440625 -167.8828125 450.390625 C-181.38779833 438.57948485 -194.05918743 425.82889772 -204.625 411.3125 C-205.48149066 410.16255169 -206.33826433 409.01281411 -207.1953125 407.86328125 C-213.23534209 399.67315742 -218.61867614 391.16870382 -223.625 382.3125 C-224.0271875 381.60528809 -224.429375 380.89807617 -224.84375 380.16943359 C-237.8691741 357.03404164 -246.61801461 331.86287591 -251.9375 305.875 C-252.08485596 305.15610596 -252.23221191 304.43721191 -252.3840332 303.6965332 C-255.35789088 288.05024391 -255.99800362 272.57681954 -255.9375 256.6875 C-255.93534485 255.66959381 -255.9331897 254.65168762 -255.93096924 253.60293579 C-255.88129854 238.99386477 -255.63040191 224.66174147 -252.625 210.3125 C-252.42632324 209.33764648 -252.22764648 208.36279297 -252.02294922 207.35839844 C-241.90232806 158.9765226 -219.9858123 114.98821731 -185.625 79.3125 C-184.99287598 78.65314453 -184.36075195 77.99378906 -183.70947266 77.31445312 C-174.56502521 67.82619695 -165.26765991 59.0862956 -154.625 51.3125 C-153.47394983 50.45443848 -152.32290823 49.59636549 -151.171875 48.73828125 C-142.98224019 42.70072604 -134.47961724 37.31792698 -125.625 32.3125 C-124.91778809 31.9103125 -124.21057617 31.508125 -123.48193359 31.09375 C-100.34654164 18.0683259 -75.17537591 9.31948539 -49.1875 4 C-48.46860596 3.85264404 -47.74971191 3.70528809 -47.0090332 3.5534668 C-31.36274391 0.57960912 -15.88931954 -0.06050362 0 0 Z " fill="#009B39" transform="translate(255.625,-0.3125)"/>
<path d="M0 0 C3.26083782 1.42862908 6.40978791 3.00844765 9.57617188 4.63574219 C10.81416087 5.25481963 12.05313076 5.87193863 13.29296875 6.48730469 C16.07292622 7.8692802 18.84812995 9.26029802 21.62109375 10.65625 C29.67457292 14.69929044 37.78583819 18.62580747 45.88531494 22.57559204 C48.84431905 24.01959808 51.80201852 25.46624172 54.75927734 26.91381836 C65.0589735 31.95537386 75.36707544 36.97750806 85.70117188 41.94824219 C98.35477577 48.03580317 110.96627706 54.20824037 123.57617188 60.38574219 C136.80546209 66.86606646 150.03513974 73.34527646 163.29003906 79.77310181 C165.29473232 80.74549221 167.29874255 81.71928028 169.30273438 82.69311523 C175.27491514 85.5914433 181.25975679 88.45762948 187.27929688 91.25683594 C188.35050781 91.75795898 189.42171875 92.25908203 190.52539062 92.77539062 C192.47664627 93.68543527 194.43203438 94.58670405 196.39257812 95.4765625 C201.17854776 97.71158853 204.98258356 99.76695702 208.32617188 104.01074219 C208.99023438 106.07324219 208.99023438 106.07324219 208.95117188 108.01074219 C208.9640625 108.65011719 208.97695313 109.28949219 208.99023438 109.94824219 C207.57344968 114.34860878 203.68683264 116.98110469 199.73388672 119.05273438 C198.34010561 119.73169298 196.94080046 120.39939084 195.53710938 121.05761719 C194.77423615 121.42578552 194.01136292 121.79395386 193.22537231 122.17327881 C190.72184728 123.3788303 188.21161094 124.56966488 185.70117188 125.76074219 C183.93568664 126.60798489 182.17071955 127.4563081 180.40625 128.30566406 C176.79298407 130.04357244 173.17731192 131.7763113 169.55957031 133.50488281 C162.6721685 136.79840539 155.8074592 140.13817535 148.94354248 143.48028564 C146.08383156 144.87201547 143.22271016 146.26083256 140.36160278 147.64968872 C130.26199486 152.55254165 120.16852776 157.46798231 110.07617188 162.38574219 C109.26603638 162.78049744 108.45590088 163.17525269 107.62121582 163.58197021 C101.85605407 166.39125907 96.09109059 169.20095465 90.32617188 172.01074219 C78.12301732 177.95848809 65.91938969 183.90525914 53.71386719 189.84814453 C52.11683515 190.6257587 50.51983011 191.40342833 48.92285156 192.18115234 C46.53653499 193.34325649 44.15012876 194.50517622 41.76367188 195.66699219 C40.99117096 196.04311142 40.21867004 196.41923065 39.42276001 196.80674744 C35.67695335 198.62973238 31.92972827 200.44968799 28.17919922 202.26293945 C27.47687164 202.60252182 26.77454407 202.94210419 26.05093384 203.29197693 C24.68409975 203.95285347 23.31721866 204.61363282 21.95028687 205.27430725 C18.02982205 207.17304073 14.12911774 209.10643228 10.24023438 211.06933594 C9.3672168 211.50294434 8.49419922 211.93655273 7.59472656 212.38330078 C6.08554488 213.13358144 4.58255067 213.89656686 3.08886719 214.67724609 C-1.8375035 217.09866171 -6.21073037 217.81490129 -11.67382812 217.01074219 C-14.26807538 216.03610786 -16.36036544 215.09900936 -18.73632812 213.76074219 C-20.13156424 213.0213329 -21.52743999 212.28312979 -22.92382812 211.54589844 C-23.67921875 211.14000488 -24.43460938 210.73411133 -25.21289062 210.31591797 C-29.84467395 207.8594186 -34.54465618 205.53768624 -39.23632812 203.19824219 C-40.2738623 202.67891113 -41.31139648 202.15958008 -42.38037109 201.62451172 C-48.84394078 198.39622178 -55.33494243 195.23480904 -61.86132812 192.13574219 C-73.42684816 186.64354962 -84.92478897 181.01544666 -96.42382812 175.38574219 C-111.51990978 167.99596611 -126.62378337 160.62305738 -141.74609375 153.28710938 C-149.4002114 149.5736915 -157.05112897 145.85385174 -164.69726562 142.12402344 C-165.54353516 141.71133713 -166.38980469 141.29865082 -167.26171875 140.87345886 C-171.47447252 138.81896405 -175.68654239 136.76308775 -179.89746094 134.70483398 C-186.93383469 131.2688118 -193.9747092 127.85012532 -201.07226562 124.54199219 C-202.14444336 124.04038574 -203.21662109 123.5387793 -204.32128906 123.02197266 C-206.22369791 122.13628248 -208.13024777 121.25939827 -210.04199219 120.39404297 C-214.73305123 118.2090019 -218.38372784 116.15626854 -221.67382812 112.01074219 C-222.33789062 109.94824219 -222.33789062 109.94824219 -222.29882812 108.01074219 C-222.31171875 107.37136719 -222.32460937 106.73199219 -222.33789062 106.07324219 C-220.89274215 101.58478103 -216.91975668 98.97949117 -212.89794922 96.87695312 C-211.41953553 96.15569299 -209.93559174 95.44569451 -208.44726562 94.74511719 C-207.63990967 94.35470749 -206.83255371 93.96429779 -206.00073242 93.5620575 C-203.3546605 92.28521314 -200.70185229 91.02306868 -198.04882812 89.76074219 C-196.18846375 88.8660314 -194.32860646 87.97026554 -192.46923828 87.07348633 C-188.68304104 85.24890674 -184.89438405 83.4296 -181.10351562 81.61474609 C-174.10714392 78.26318986 -167.13135306 74.86972111 -160.15643311 71.47381592 C-157.31270749 70.09004129 -154.46756248 68.70919883 -151.62240601 67.32836914 C-141.55147206 62.44055835 -131.48704859 57.53941001 -121.42382812 52.63574219 C-120.61351135 52.2408963 -119.80319458 51.84605042 -118.96832275 51.4392395 C-113.20334431 48.63004179 -107.43856282 45.82044004 -101.67382812 43.01074219 C-95.90681127 40.19993202 -90.13973287 37.38924826 -84.37246704 34.57894897 C-82.74530921 33.7860449 -81.11817284 32.99309678 -79.49105835 32.20010376 C-70.66613241 27.89933816 -61.83892506 23.60336212 -53.00585938 19.31933594 C-52.2205484 18.93835754 -51.43523743 18.55737915 -50.62612915 18.16485596 C-46.93137 16.37248753 -43.23617776 14.58102576 -39.54003906 12.79150391 C-38.53657944 12.30463104 -38.53657944 12.30463104 -37.5128479 11.80792236 C-36.19677402 11.1700643 -34.87971072 10.53424321 -33.56161499 9.90057373 C-30.14624883 8.25038273 -26.77550555 6.54409472 -23.43505859 4.74658203 C-8.59219716 -3.17892466 -8.59219716 -3.17892466 0 0 Z " fill="#FCDE00" transform="translate(262.673828125,147.9892578125)"/>
<path d="M0 0 C27.02347764 3.48690034 55.59537283 20.08841905 72.28173828 41.65673828 C80.79962607 53.44157464 87.2042559 66.70176589 90 81 C85.67085172 85.32914828 81.14901147 88.14750638 75.625 90.75 C75.01325928 91.04334229 74.40151855 91.33668457 73.77124023 91.63891602 C60.45789663 97.69966387 43.77237301 98.31541377 30.046875 93.31640625 C12.58610159 85.77245671 0.91484503 75.43041729 -6.8125 57.9375 C-12.58820358 43.08026251 -13.29435869 26.80800494 -7 12 C-2.23752969 2.23752969 -2.23752969 2.23752969 0 0 Z " fill="#012875" transform="translate(206,221)"/>
<path d="M0 0 C12.70431342 8.51828785 22.48132144 22.72885442 25.98046875 37.71875 C27.19540034 47.43820275 27.5118383 57.5269719 24.375 66.875 C21.73993179 63.57712322 19.77439412 60.07389296 17.75 56.375 C13.84214931 49.3974141 9.38312641 43.12375517 4.375 36.875 C3.80136719 36.14667969 3.22773438 35.41835937 2.63671875 34.66796875 C-2.10774872 28.92704988 -7.74756469 24.41266715 -13.625 19.875 C-14.50285156 19.19308594 -15.38070312 18.51117188 -16.28515625 17.80859375 C-29.11591604 8.15245494 -42.80948811 1.81384059 -57.625 -4.125 C-57.625 -4.785 -57.625 -5.445 -57.625 -6.125 C-37.83914693 -13.71409433 -18.15743895 -10.66429865 0 0 Z " fill="#042A73" transform="translate(290.625,205.125)"/>
</svg>
