<?xml version="1.0" encoding="UTF-8"?>
<svg version="1.1" xmlns="http://www.w3.org/2000/svg" width="512" height="512">
<path d="M0 0 C2.94846068 0.00314748 5.8959015 -0.02035196 8.84423828 -0.0456543 C22.23420356 -0.09027055 35.14581187 1.11142326 48.34814453 3.31567383 C50.05357422 3.59785767 50.05357422 3.59785767 51.79345703 3.88574219 C54.389253 4.35197518 56.96081163 4.87071381 59.53564453 5.44067383 C60.92456909 5.74763184 60.92456909 5.74763184 62.34155273 6.06079102 C106.79224038 16.39661722 147.52755017 38.70475281 180.34814453 70.31567383 C181.33717773 71.26385986 181.33717773 71.26385986 182.34619141 72.23120117 C191.83444759 81.37564862 200.57434893 90.67301392 208.34814453 101.31567383 C209.20620605 102.46672399 210.06427904 103.6177656 210.92236328 104.76879883 C216.96051282 112.95997997 222.31909974 121.47371488 227.34814453 130.31567383 C227.71262695 130.94747559 228.07710938 131.57927734 228.45263672 132.23022461 C247.36563543 165.2737206 259.25561578 205.12680064 259.58642578 243.30786133 C259.59617432 244.24345383 259.60592285 245.17904633 259.6159668 246.14299011 C259.78488416 266.55549176 259.60692299 286.26407104 255.34814453 306.31567383 C255.16622559 307.22349609 254.98430664 308.13131836 254.796875 309.06665039 C246.32255485 350.85512096 227.19451619 390.03450965 199.34814453 422.31567383 C198.71392578 423.06075195 198.07970703 423.80583008 197.42626953 424.57348633 C185.61512939 438.07847215 172.86454225 450.74986126 158.34814453 461.31567383 C157.19819622 462.17216449 156.04845864 463.02893816 154.89892578 463.88598633 C146.70880195 469.92601591 138.20434836 475.30934997 129.34814453 480.31567383 C128.64093262 480.71786133 127.9337207 481.12004883 127.20507812 481.53442383 C104.08553516 494.55092481 78.936447 503.28422583 52.97314453 508.62817383 C52.26262939 508.77552979 51.55211426 508.92288574 50.82006836 509.07470703 C35.17773402 512.061114 19.5413836 512.69048337 3.66064453 512.62817383 C2.69325348 512.62635101 1.72586243 512.6245282 0.72915649 512.62265015 C-13.60376524 512.57722209 -27.54959464 512.06833455 -41.65185547 509.31567383 C-42.54888184 509.15470215 -43.4459082 508.99373047 -44.37011719 508.82788086 C-93.05778671 500.01789234 -138.08191455 476.57460836 -173.65185547 442.31567383 C-174.31121094 441.6835498 -174.97056641 441.05142578 -175.64990234 440.40014648 C-185.13815852 431.25569904 -193.87805987 421.95833373 -201.65185547 411.31567383 C-202.50991699 410.16462366 -203.36798998 409.01358205 -204.22607422 407.86254883 C-210.26422376 399.67136768 -215.62281067 391.15763278 -220.65185547 382.31567383 C-221.01633789 381.68387207 -221.38082031 381.05207031 -221.75634766 380.40112305 C-236.68658564 354.31603382 -246.16570601 324.97982269 -250.65185547 295.31567383 C-250.91675781 293.63199707 -250.91675781 293.63199707 -251.18701172 291.91430664 C-252.84391407 280.3011964 -253.0505906 268.78387438 -253.02685547 257.06567383 C-253.02631165 256.05365906 -253.02576782 255.04164429 -253.02520752 253.9989624 C-252.98446056 237.46449987 -252.06072454 221.54502519 -248.65185547 205.31567383 C-248.44286621 204.30037598 -248.23387695 203.28507813 -248.01855469 202.23901367 C-239.24065736 160.92700698 -220.23798613 122.29515123 -192.65185547 90.31567383 C-192.01763672 89.5705957 -191.38341797 88.82551758 -190.72998047 88.05786133 C-178.91884032 74.5528755 -166.16825319 61.8814864 -151.65185547 51.31567383 C-150.50190716 50.45918317 -149.35216958 49.6024095 -148.20263672 48.74536133 C-140.01251289 42.70533174 -131.50805929 37.32199769 -122.65185547 32.31567383 C-121.94464355 31.91348633 -121.23743164 31.51129883 -120.50878906 31.09692383 C-94.30394366 16.34337111 -65.36646428 6.81437176 -35.65185547 2.31567383 C-34.53375488 2.13834717 -33.4156543 1.96102051 -32.26367188 1.77832031 C-21.50231249 0.23401232 -10.86244537 -0.02412288 0 0 Z " fill="#FED943" transform="translate(252.65185546875,-0.315673828125)"/>
<path d="M0 0 C2.94846068 0.00314748 5.8959015 -0.02035196 8.84423828 -0.0456543 C22.23420356 -0.09027055 35.14581187 1.11142326 48.34814453 3.31567383 C50.05357422 3.59785767 50.05357422 3.59785767 51.79345703 3.88574219 C54.389253 4.35197518 56.96081163 4.87071381 59.53564453 5.44067383 C60.92456909 5.74763184 60.92456909 5.74763184 62.34155273 6.06079102 C106.79224038 16.39661722 147.52755017 38.70475281 180.34814453 70.31567383 C181.33717773 71.26385986 181.33717773 71.26385986 182.34619141 72.23120117 C191.83444759 81.37564862 200.57434893 90.67301392 208.34814453 101.31567383 C209.20620605 102.46672399 210.06427904 103.6177656 210.92236328 104.76879883 C242.34814453 147.40011579 242.34814453 147.40011579 242.34814453 164.31567383 C84.60814453 164.31567383 -73.13185547 164.31567383 -235.65185547 164.31567383 C-234.6076609 159.09470098 -232.89853927 154.93834851 -230.71435547 150.12817383 C-230.31394043 149.24613281 -229.91352539 148.3640918 -229.50097656 147.45532227 C-217.82042754 122.13765299 -201.98515584 99.38881275 -182.65185547 79.31567383 C-182.01973145 78.65631836 -181.38760742 77.99696289 -180.73632812 77.31762695 C-171.59188068 67.82937077 -162.29451538 59.08946943 -151.65185547 51.31567383 C-150.5008053 50.45761231 -149.34976369 49.59953932 -148.19873047 48.74145508 C-140.00909566 42.70389986 -131.50647271 37.32110081 -122.65185547 32.31567383 C-121.94464355 31.91348633 -121.23743164 31.51129883 -120.50878906 31.09692383 C-94.30394366 16.34337111 -65.36646428 6.81437176 -35.65185547 2.31567383 C-34.53375488 2.13834717 -33.4156543 1.96102051 -32.26367188 1.77832031 C-21.50231249 0.23401232 -10.86244537 -0.02412288 0 0 Z " fill="#D80026" transform="translate(252.65185546875,-0.315673828125)"/>
<path d="M0 0 C157.74 0 315.48 0 478 0 C476.95580543 5.22097285 475.2466838 9.37732532 473.0625 14.1875 C472.66208496 15.06954102 472.26166992 15.95158203 471.84912109 16.86035156 C460.16857207 42.17802084 444.33330037 64.92686108 425 85 C424.36787598 85.65935547 423.73575195 86.31871094 423.08447266 86.99804688 C413.94002521 96.48630305 404.64265991 105.2262044 394 113 C392.84894983 113.85806152 391.69790823 114.71613451 390.546875 115.57421875 C382.35724019 121.61177396 373.85461724 126.99457302 365 132 C363.93918213 132.60328125 363.93918213 132.60328125 362.85693359 133.21875 C339.73739063 146.23525099 314.58830247 154.968552 288.625 160.3125 C287.91448486 160.45985596 287.20396973 160.60721191 286.47192383 160.7590332 C270.82958949 163.74544017 255.19323907 164.37480954 239.3125 164.3125 C238.34510895 164.31067719 237.3777179 164.30885437 236.38101196 164.30697632 C222.04809023 164.26154826 208.10226083 163.75266072 194 161 C193.10297363 160.83902832 192.20594727 160.67805664 191.28173828 160.51220703 C142.59406876 151.70221851 97.56994092 128.25893453 62 94 C61.34064453 93.36787598 60.68128906 92.73575195 60.00195312 92.08447266 C50.51369695 82.94002521 41.7737956 73.64265991 34 63 C33.14193848 61.84894983 32.28386549 60.69790823 31.42578125 59.546875 C0 16.91555804 0 16.91555804 0 0 Z " fill="#D80026" transform="translate(17,348)"/>
</svg>
