<?xml version="1.0" standalone="no"?>
<!DOCTYPE svg PUBLIC "-//W3C//DTD SVG 20010904//EN"
 "http://www.w3.org/TR/2001/REC-SVG-20010904/DTD/svg10.dtd">
<svg version="1.0" xmlns="http://www.w3.org/2000/svg"
 width="96.000000pt" height="96.000000pt" viewBox="0 0 96.000000 96.000000"
 preserveAspectRatio="xMidYMid meet">

<g transform="translate(0.000000,96.000000) scale(0.100000,-0.100000)"
fill="#000000" stroke="none">
<path d="M162 477 l3 -312 46 -23 c106 -53 432 -53 538 0 l46 23 3 311 2 311
-57 -19 c-113 -39 -451 -34 -550 7 l-33 14 2 -312z m228 25 c0 -15 -6 -18 -30
-14 -34 5 -40 -12 -11 -28 74 -39 62 -100 -20 -100 -32 0 -39 3 -39 20 0 16 5
19 29 14 42 -9 46 11 6 35 -60 35 -44 91 27 91 30 0 38 -4 38 -18z m159 -8
c23 -29 27 -65 10 -95 -8 -16 -7 -25 7 -40 16 -18 16 -19 -13 -19 -16 0 -33 3
-37 7 -4 4 -13 8 -19 9 -7 0 -20 2 -29 2 -28 3 -58 43 -58 78 0 49 33 84 80
84 30 0 43 -6 59 -26z m91 -39 c0 -63 1 -65 25 -65 16 0 25 -6 25 -15 0 -11
-12 -15 -45 -15 l-45 0 0 80 c0 73 2 80 20 80 18 0 20 -7 20 -65z"/>
<path d="M458 465 c-15 -33 3 -75 32 -75 29 0 47 42 32 75 -7 15 -20 25 -32
25 -12 0 -25 -10 -32 -25z"/>
</g>
</svg>
